<svg width="10" height="16" viewBox="0 0 10 16" fill="none" xmlns="http://www.w3.org/2000/svg">
<path id="Vector" fill-rule="evenodd" clip-rule="evenodd" d="M9.64815 7.1356C9.87344 7.36096 10 7.66657 10 7.98523C10 8.30389 9.87344 8.6095 9.64815 8.83486L2.84989 15.6331C2.73904 15.7479 2.60643 15.8395 2.45981 15.9024C2.3132 15.9654 2.1555 15.9986 1.99594 16C1.83637 16.0013 1.67813 15.9709 1.53044 15.9105C1.38275 15.8501 1.24857 15.7609 1.13573 15.648C1.0229 15.5352 0.933666 15.401 0.873242 15.2533C0.812817 15.1056 0.782411 14.9474 0.783798 14.7878C0.785184 14.6282 0.818336 14.4706 0.881318 14.3239C0.9443 14.1773 1.03585 14.0447 1.15063 13.9339L7.09926 7.98523L1.15063 2.03661C0.931723 1.80996 0.810594 1.50639 0.813332 1.1913C0.81607 0.876207 0.942456 0.574795 1.16527 0.351982C1.38808 0.129169 1.68949 0.0027835 2.00459 4.5429e-05C2.31968 -0.00269264 2.62324 0.118436 2.84989 0.337343L9.64815 7.1356Z" fill="black"/>
</svg>
