<svg width="28" height="28" viewBox="0 0 28 28" fill="none" xmlns="http://www.w3.org/2000/svg">
<path id="Vector" d="M0 25.2H28V28H0V25.2ZM2.8 14H5.6V23.8H2.8V14ZM9.8 14H12.6V23.8H9.8V14ZM15.4 14H18.2V23.8H15.4V14ZM22.4 14H25.2V23.8H22.4V14ZM0 7L14 0L28 7V12.6H0V7ZM2.8 8.7304V9.8H25.2V8.7304L14 3.1304L2.8 8.7304ZM14 8.4C13.6287 8.4 13.2726 8.2525 13.0101 7.98995C12.7475 7.7274 12.6 7.3713 12.6 7C12.6 6.6287 12.7475 6.2726 13.0101 6.01005C13.2726 5.7475 13.6287 5.6 14 5.6C14.3713 5.6 14.7274 5.7475 14.9899 6.01005C15.2525 6.2726 15.4 6.6287 15.4 7C15.4 7.3713 15.2525 7.7274 14.9899 7.98995C14.7274 8.2525 14.3713 8.4 14 8.4Z" fill="#006400"/>
</svg>
