<svg width="17" height="18" viewBox="0 0 17 18" fill="none" xmlns="http://www.w3.org/2000/svg">
<path id="Vector" fill-rule="evenodd" clip-rule="evenodd" d="M10.6744 0H7.2787C5.73991 0 4.52093 0 3.56735 0.128093C2.58614 0.260372 1.79163 0.538326 1.16456 1.16456C0.538326 1.79163 0.260372 2.58614 0.128093 3.56735C9.98031e-08 4.52177 0 5.73991 0 7.2787V12.3488C2.02096e-05 13.0968 0.267016 13.8202 0.752934 14.3889C1.23885 14.9575 1.91178 15.334 2.6506 15.4507C2.7653 16.0903 2.98716 16.6362 3.43088 17.0807C3.93488 17.5847 4.56949 17.8007 5.32298 17.9029C6.04884 18 6.97228 18 8.11674 18H10.7205C11.8649 18 12.7884 18 13.5142 17.9029C14.2677 17.8007 14.9023 17.5847 15.4063 17.0807C15.9103 16.5767 16.1263 15.9421 16.2285 15.1887C16.3256 14.4628 16.3256 13.5393 16.3256 12.3949V8.11674C16.3256 6.97228 16.3256 6.04884 16.2285 5.32298C16.1263 4.56949 15.9103 3.93488 15.4063 3.43088C14.9618 2.98716 14.4159 2.7653 13.7763 2.6506C13.6596 1.91178 13.2831 1.23885 12.7145 0.752934C12.1458 0.267016 11.4224 2.02096e-05 10.6744 0ZM12.4577 2.52921C12.3304 2.15749 12.09 1.83488 11.7703 1.60654C11.4505 1.37821 11.0673 1.25557 10.6744 1.25581H7.32558C5.72902 1.25581 4.59544 1.25749 3.73395 1.37302C2.89256 1.48605 2.40698 1.6987 2.05284 2.05284C1.6987 2.40698 1.48605 2.89256 1.37302 3.73479C1.25749 4.59544 1.25581 5.72902 1.25581 7.32558V12.3488C1.25557 12.7418 1.37821 13.1249 1.60654 13.4447C1.83488 13.7644 2.15749 14.0048 2.52921 14.1321C2.51163 13.6214 2.51163 13.0437 2.51163 12.3949V8.11674C2.51163 6.97228 2.51163 6.04884 2.60958 5.32298C2.71005 4.56949 2.92772 3.93488 3.43088 3.43088C3.93488 2.92688 4.56949 2.71088 5.32298 2.60958C6.04884 2.51163 6.97228 2.51163 8.11674 2.51163H10.7205C11.3693 2.51163 11.947 2.51163 12.4577 2.52921ZM4.31833 4.32C4.55023 4.08809 4.87507 3.9374 5.49042 3.85451C6.12167 3.76995 6.96056 3.76828 8.16195 3.76828H10.6736C11.875 3.76828 12.713 3.76995 13.346 3.85451C13.9605 3.9374 14.2853 4.08893 14.5172 4.32C14.7491 4.55191 14.8998 4.87674 14.9827 5.49209C15.0673 6.12335 15.0689 6.96223 15.0689 8.16363V12.3497C15.0689 13.5511 15.0673 14.3891 14.9827 15.022C14.8998 15.6366 14.7483 15.9614 14.5172 16.1933C14.2853 16.4252 13.9605 16.5759 13.3451 16.6588C12.713 16.7433 11.875 16.745 10.6736 16.745H8.16195C6.96056 16.745 6.12168 16.7433 5.48958 16.6588C4.87507 16.5759 4.55023 16.4244 4.31833 16.1933C4.08642 15.9614 3.93572 15.6366 3.85284 15.0212C3.76828 14.3891 3.7666 13.5511 3.7666 12.3497V8.16363C3.7666 6.96223 3.76828 6.12335 3.85284 5.49126C3.93572 4.87674 4.08726 4.55191 4.31833 4.32Z" fill="white"/>
</svg>
