<svg width="32" height="28" viewBox="0 0 32 28" fill="none" xmlns="http://www.w3.org/2000/svg">
<path id="Vector" d="M5.96429 26V4.104C5.96415 3.63865 6.1172 3.18643 6.3994 2.81837C6.68161 2.45031 7.07699 2.18725 7.52343 2.07051C7.96988 1.95378 8.44211 1.98997 8.86596 2.17341C9.28981 2.35685 9.64127 2.67715 9.86514 3.084L21.8849 24.916C22.1087 25.3228 22.4602 25.6431 22.884 25.8266C23.3079 26.01 23.7801 26.0462 24.2266 25.9295C24.673 25.8127 25.0684 25.5497 25.3506 25.1816C25.6328 24.8136 25.7859 24.3614 25.7857 23.896V2M2 10H29.75M2 18H29.75" stroke="black" stroke-width="3" stroke-linecap="round" stroke-linejoin="round"/>
</svg>
