<svg width="33" height="21" viewBox="0 0 33 21" fill="none" xmlns="http://www.w3.org/2000/svg">
<g id="Group 23">
<path id="Vector" d="M12.0195 2.19092H20.9282V18.1983H12.0195V2.19092Z" fill="#FF5F00"/>
<path id="Vector_2" d="M12.5854 10.1946C12.5854 6.94224 14.1125 4.05745 16.4599 2.19082C14.7348 0.833323 12.5572 0.0131836 10.1815 0.0131836C4.55328 0.0131836 0 4.56646 0 10.1946C0 15.8226 4.55328 20.376 10.1814 20.376C12.557 20.376 14.7347 19.5558 16.4599 18.1982C14.1125 16.3599 12.5854 13.4469 12.5854 10.1946Z" fill="#EB001B"/>
<path id="Vector_3" d="M32.9481 10.1946C32.9481 15.8226 28.3949 20.376 22.7667 20.376C20.3911 20.376 18.2135 19.5558 16.4883 18.1982C18.8639 16.3317 20.3629 13.4469 20.3629 10.1946C20.3629 6.94224 18.8356 4.05745 16.4883 2.19082C18.2133 0.833323 20.3911 0.0131836 22.7667 0.0131836C28.3949 0.0131836 32.9481 4.59481 32.9481 10.1946Z" fill="#F79E1B"/>
</g>
</svg>
