<svg width="24" height="24" viewBox="0 0 24 24" fill="none" xmlns="http://www.w3.org/2000/svg">
<g id="material-symbols:search" clip-path="url(#clip0_864_840)">
<path id="Vector" d="M23.2889 25L15.5889 17.3C14.9778 17.7889 14.275 18.1759 13.4806 18.4611C12.6861 18.7463 11.8407 18.8889 10.9444 18.8889C8.72407 18.8889 6.84511 18.1197 5.30756 16.5813C3.77 15.043 3.00081 13.164 3 10.9444C3 8.72407 3.76919 6.84511 5.30756 5.30756C6.84593 3.77 8.72489 3.00081 10.9444 3C13.1648 3 15.0438 3.76919 16.5813 5.30756C18.1189 6.84593 18.8881 8.72489 18.8889 10.9444C18.8889 11.8407 18.7463 12.6861 18.4611 13.4806C18.1759 14.275 17.7889 14.9778 17.3 15.5889L25 23.2889L23.2889 25ZM10.9444 16.4444C12.4722 16.4444 13.771 15.9095 14.8409 14.8397C15.9107 13.7698 16.4453 12.4714 16.4444 10.9444C16.4444 9.41667 15.9095 8.11785 14.8397 7.048C13.7698 5.97815 12.4714 5.44363 10.9444 5.44444C9.41667 5.44444 8.11785 5.97937 7.048 7.04922C5.97815 8.11907 5.44363 9.41748 5.44444 10.9444C5.44444 12.4722 5.97937 13.771 7.04922 14.8409C8.11907 15.9107 9.41748 16.4453 10.9444 16.4444Z" fill="#FFC107"/>
</g>
<defs>
<clipPath id="clip0_864_840">
<rect width="24" height="24" fill="white"/>
</clipPath>
</defs>
</svg>
