<svg width="33" height="32" viewBox="0 0 33 32" fill="none" xmlns="http://www.w3.org/2000/svg">
<g id="lets-icons:upload">
<path id="Vector" fill-rule="evenodd" clip-rule="evenodd" d="M16.5003 2.66658C14.9571 2.66643 13.4468 3.11255 12.1513 3.95119C10.8559 4.78983 9.83058 5.98519 9.19899 7.39325C9.10916 7.59512 9.01716 7.79602 8.92299 7.99591L8.89633 7.99725C8.81099 7.99991 8.69499 7.99991 8.50033 7.99991C7.08584 7.99991 5.72928 8.56182 4.72909 9.56201C3.7289 10.5622 3.16699 11.9188 3.16699 13.3332C3.16699 14.7477 3.7289 16.1043 4.72909 17.1045C5.72928 18.1047 7.08584 18.6666 8.50033 18.6666H8.72966L11.3963 15.9999H8.50033C7.79308 15.9999 7.1148 15.719 6.61471 15.2189C6.11461 14.7188 5.83366 14.0405 5.83366 13.3332C5.83366 12.626 6.11461 11.9477 6.61471 11.4476C7.1148 10.9475 7.79308 10.6666 8.50033 10.6666H8.58566C8.86299 10.6666 9.18566 10.6679 9.45233 10.6132C9.7839 10.5551 10.1009 10.4328 10.3857 10.2532C10.707 10.0452 10.9283 9.78658 11.0963 9.55058C11.1993 9.3986 11.289 9.238 11.3643 9.07058C11.435 8.92391 11.5217 8.73058 11.6257 8.49991L11.631 8.48658C12.0515 7.54679 12.7351 6.74879 13.5991 6.18885C14.4631 5.62891 15.4707 5.33096 16.5003 5.33096C17.5299 5.33096 18.5375 5.62891 19.4015 6.18885C20.2656 6.74879 20.9491 7.54679 21.3697 8.48658L21.3763 8.49991C21.479 8.73058 21.5657 8.92258 21.6363 9.07058C21.6977 9.19991 21.7883 9.38791 21.9043 9.55058C22.0723 9.78525 22.2923 10.0452 22.615 10.2546C22.9377 10.4626 23.2643 10.5572 23.5483 10.6146C23.815 10.6679 24.1377 10.6679 24.415 10.6679L24.5003 10.6666C25.2076 10.6666 25.8858 10.9475 26.3859 11.4476C26.886 11.9477 27.167 12.626 27.167 13.3332C27.167 14.0405 26.886 14.7188 26.3859 15.2189C25.8858 15.719 25.2076 15.9999 24.5003 15.9999H21.6043L24.271 18.6666H24.5003C25.9148 18.6666 27.2714 18.1047 28.2716 17.1045C29.2718 16.1043 29.8337 14.7477 29.8337 13.3332C29.8337 11.9188 29.2718 10.5622 28.2716 9.56201C27.2714 8.56182 25.9148 7.99991 24.5003 7.99991C24.3057 7.99991 24.1897 7.99991 24.1043 7.99725H24.0777C23.5236 6.43249 22.4966 5.07878 21.139 4.12367C19.7813 3.16857 18.1603 2.65935 16.5003 2.66658Z" fill="black" fill-opacity="0.5"/>
<path id="Vector_2" d="M16.4996 16.0001L15.557 15.0574L16.4996 14.1147L17.4423 15.0574L16.4996 16.0001ZM17.833 28.0001C17.833 28.3537 17.6925 28.6928 17.4424 28.9429C17.1924 29.1929 16.8533 29.3334 16.4996 29.3334C16.146 29.3334 15.8069 29.1929 15.5568 28.9429C15.3068 28.6928 15.1663 28.3537 15.1663 28.0001H17.833ZM10.2236 20.3907L15.557 15.0574L17.4423 16.9427L12.109 22.2761L10.2236 20.3907ZM17.4423 15.0574L22.7756 20.3907L20.8903 22.2761L15.557 16.9427L17.4423 15.0574ZM17.833 16.0001V28.0001H15.1663V16.0001H17.833Z" fill="black" fill-opacity="0.5"/>
</g>
</svg>
