<svg width="29" height="4" viewBox="0 0 29 4" fill="none" xmlns="http://www.w3.org/2000/svg">
<path id="Vector" d="M4.59817 3.93346V2.3406C4.59817 1.72987 4.22641 1.33174 3.58919 1.33174C3.27064 1.33174 2.92549 1.43792 2.68652 1.78308C2.50076 1.49102 2.2353 1.33174 1.83705 1.33174C1.57148 1.33174 1.30614 1.41132 1.09365 1.70338V1.38483H0.536133V3.93346H1.09365V2.52636C1.09365 2.07514 1.33262 1.86266 1.70439 1.86266C2.0759 1.86266 2.26191 2.10163 2.26191 2.52636V3.93346H2.81943V2.52636C2.81943 2.07514 3.08476 1.86266 3.42992 1.86266C3.80168 1.86266 3.98744 2.10163 3.98744 2.52636V3.93346H4.59817ZM12.8547 1.38483H11.9521V0.614948H11.3946V1.38483H10.8902V1.88914H11.3945V3.05739C11.3945 3.64152 11.6334 3.98655 12.2707 3.98655C12.5096 3.98655 12.775 3.90698 12.961 3.8008L12.8016 3.32285C12.6423 3.42903 12.4565 3.45564 12.3238 3.45564C12.0583 3.45564 11.9521 3.29637 11.9521 3.03079V1.88914H12.8547V1.38483ZM17.5804 1.33162C17.2619 1.33162 17.0495 1.49102 16.9167 1.70338V1.38483H16.3592V3.93346H16.9167V2.49987C16.9167 2.07514 17.1025 1.83617 17.4476 1.83617C17.5538 1.83617 17.6866 1.86278 17.7928 1.88926L17.952 1.35835C17.8459 1.33174 17.6866 1.33174 17.5804 1.33174V1.33162ZM10.4388 1.5972C10.1732 1.41132 9.80161 1.33174 9.40336 1.33174C8.76627 1.33174 8.34154 1.65029 8.34154 2.15472C8.34154 2.57957 8.66008 2.81842 9.21761 2.89812L9.48306 2.92473C9.77512 2.9777 9.9344 3.0574 9.9344 3.19018C9.9344 3.37594 9.72203 3.50873 9.35027 3.50873C8.97863 3.50873 8.68657 3.37594 8.50069 3.24327L8.23523 3.66801C8.5273 3.88037 8.92554 3.98655 9.32367 3.98655C10.0671 3.98655 10.4919 3.64152 10.4919 3.16358C10.4919 2.71224 10.1468 2.47327 9.61573 2.39369L9.35027 2.36709C9.1113 2.34048 8.92554 2.28751 8.92554 2.12823C8.92554 1.94235 9.1113 1.83617 9.40336 1.83617C9.72203 1.83617 10.0406 1.96884 10.1999 2.04854L10.4388 1.5972ZM25.253 1.33174C24.9344 1.33174 24.722 1.49102 24.5892 1.70338V1.38483H24.0317V3.93346H24.5892V2.49987C24.5892 2.07514 24.7751 1.83617 25.1201 1.83617C25.2264 1.83617 25.3592 1.86278 25.4654 1.88926L25.6247 1.35835C25.5185 1.33174 25.3592 1.33174 25.253 1.33174ZM18.1379 2.65915C18.1379 3.42903 18.6688 3.98655 19.4919 3.98655C19.8636 3.98655 20.129 3.90698 20.3945 3.69461L20.129 3.24327C19.9167 3.40255 19.7043 3.48213 19.4653 3.48213C19.014 3.48213 18.6954 3.16358 18.6954 2.65915C18.6954 2.18133 19.014 1.86266 19.4653 1.83617C19.7043 1.83617 19.9167 1.91575 20.129 2.07514L20.3945 1.62381C20.129 1.41132 19.8636 1.33174 19.4919 1.33174C18.6688 1.33174 18.1379 1.88926 18.1379 2.65915ZM23.2884 2.65915V1.38483H22.7309V1.70338C22.545 1.46453 22.2795 1.33174 21.9344 1.33174C21.2176 1.33174 20.6601 1.88926 20.6601 2.65915C20.6601 3.42903 21.2176 3.98655 21.9344 3.98655C22.306 3.98655 22.5716 3.85389 22.7309 3.61491V3.93346H23.2884V2.65915ZM21.2441 2.65915C21.2441 2.20781 21.5361 1.83617 22.014 1.83617C22.4653 1.83617 22.784 2.18133 22.784 2.65915C22.784 3.11049 22.4653 3.48213 22.014 3.48213C21.5361 3.45552 21.2441 3.11049 21.2441 2.65915ZM14.5804 1.33174C13.837 1.33174 13.306 1.86266 13.306 2.65915C13.306 3.45564 13.8369 3.98655 14.6069 3.98655C14.9786 3.98655 15.3503 3.88037 15.6424 3.64152L15.3768 3.24327C15.1644 3.40255 14.899 3.50873 14.6335 3.50873C14.2884 3.50873 13.9432 3.34946 13.8635 2.898H15.7486V2.68575C15.7752 1.86266 15.2974 1.33174 14.5804 1.33174ZM14.5804 1.80957C14.9255 1.80957 15.1646 2.02205 15.2175 2.4203H13.8901C13.9432 2.07514 14.1822 1.80957 14.5804 1.80957ZM28.4123 2.65915V0.375977H27.8547V1.70338C27.6689 1.46453 27.4034 1.33174 27.0583 1.33174C26.3415 1.33174 25.7839 1.88926 25.7839 2.65915C25.7839 3.42903 26.3415 3.98655 27.0583 3.98655C27.43 3.98655 27.6955 3.85389 27.8547 3.61491V3.93346H28.4123V2.65915ZM26.3681 2.65915C26.3681 2.20781 26.66 1.83617 27.1379 1.83617C27.5893 1.83617 27.9078 2.18133 27.9078 2.65915C27.9078 3.11049 27.5893 3.48213 27.1379 3.48213C26.66 3.45552 26.3681 3.11049 26.3681 2.65915ZM7.7308 2.65915V1.38483H7.17328V1.70338C6.9874 1.46453 6.72195 1.33174 6.37679 1.33174C5.66 1.33174 5.10248 1.88926 5.10248 2.65915C5.10248 3.42903 5.66 3.98655 6.37679 3.98655C6.74855 3.98655 7.01401 3.85389 7.17328 3.61491V3.93346H7.7308V2.65915ZM5.66 2.65915C5.66 2.20781 5.95206 1.83617 6.42988 1.83617C6.88122 1.83617 7.19989 2.18133 7.19989 2.65915C7.19989 3.11049 6.88122 3.48213 6.42988 3.48213C5.95206 3.45552 5.66 3.11049 5.66 2.65915Z" fill="black"/>
</svg>
