<svg width="22" height="22" viewBox="0 0 22 22" fill="none" xmlns="http://www.w3.org/2000/svg">
<path id="Vector" fill-rule="evenodd" clip-rule="evenodd" d="M11 -0.00683594C4.9247 -0.00683594 0 4.91786 0 10.9932C0 13.0722 0.5775 15.0192 1.5818 16.678L0.6006 20.0132C0.544263 20.2046 0.540556 20.4078 0.589869 20.6012C0.639181 20.7946 0.739692 20.9712 0.880835 21.1123C1.02198 21.2535 1.19854 21.354 1.39196 21.4033C1.58538 21.4526 1.78851 21.4489 1.98 21.3926L5.3152 20.4114C7.02974 21.4488 8.99604 21.9959 11 21.9932C17.0753 21.9932 22 17.0685 22 10.9932C22 4.91786 17.0753 -0.00683594 11 -0.00683594ZM8.5118 13.4825C10.7371 15.7067 12.8612 16.0004 13.6114 16.0279C14.7521 16.0697 15.8631 15.1985 16.2954 14.1876C16.35 14.0618 16.3698 13.9237 16.3528 13.7877C16.3357 13.6516 16.2825 13.5227 16.1986 13.4143C15.5958 12.6443 14.7807 12.091 13.9843 11.541C13.818 11.426 13.6137 11.3799 13.4141 11.4123C13.2146 11.4447 13.0353 11.5531 12.914 11.7148L12.254 12.7213C12.2193 12.7754 12.1652 12.8142 12.1029 12.8297C12.0405 12.8453 11.9745 12.8364 11.9185 12.8049C11.4708 12.5486 10.8185 12.113 10.3499 11.6444C9.8813 11.1758 9.4721 10.5532 9.2422 10.1341C9.21369 10.0808 9.20545 10.019 9.219 9.96018C9.23255 9.90133 9.26698 9.84938 9.3159 9.81396L10.3323 9.05936C10.4773 8.93324 10.571 8.75818 10.5953 8.56751C10.6196 8.37684 10.573 8.18388 10.4643 8.02536C9.9715 7.30376 9.3973 6.38636 8.5646 5.77806C8.45713 5.70019 8.33125 5.65163 8.19932 5.63716C8.0674 5.6227 7.93398 5.64282 7.8122 5.69556C6.8002 6.12896 5.9246 7.23996 5.9664 8.38286C5.9939 9.13306 6.2876 11.2572 8.5118 13.4825Z" fill="#006400"/>
</svg>
